<?xml version="1.0" encoding="utf-8"?>
<!-- Generator: Adobe Illustrator 16.0.0, SVG Export Plug-In . SVG Version: 6.00 Build 0)  -->
<!DOCTYPE svg PUBLIC "-//W3C//DTD SVG 1.1//EN" "http://www.w3.org/Graphics/SVG/1.1/DTD/svg11.dtd">
<svg version="1.1" xmlns="http://www.w3.org/2000/svg" xmlns:xlink="http://www.w3.org/1999/xlink" x="0px" y="0px" width="1500px"
	 height="1500px" viewBox="0 0 1500 1500" enable-background="new 0 0 1500 1500" xml:space="preserve">
<g id="Home_Plate">
	<path fill-rule="evenodd" clip-rule="evenodd" fill="#F05E23" d="M1110.193,463.464c-4.302-23.044-18.469-39.243-36.43-52.801
		c-14.969-11.3-32.237-14.833-50.585-14.829c-150.021,0.032-300.043,0.019-450.064,0.019c-40.651,0.001-81.306-0.313-121.95,0.216
		c-10.43,0.135-21.349,1.43-31.124,4.831c-17.917,6.235-31.688,18.583-42.738,34.108c-8.135,11.432-12.642,23.917-13.674,37.814
		c-0.074,0.993-0.022,226.383,0.018,227.743c0.877,29.569,11.973,55.263,29.39,78.657c19.788,26.578,44.363,48.571,68.233,71.205
		c39.113,37.085,78.5,73.881,117.818,110.75c30.135,28.26,60.021,56.799,90.688,84.471c10.679,9.636,22.847,17.923,35.254,25.274
		c21.398,12.679,43.813,12.798,65.156-0.104c12.889-7.791,25.541-16.482,36.681-26.562c32.303-29.229,63.806-59.345,95.588-89.15
		c38.372-35.987,76.811-71.905,115.02-108.066c22.723-21.506,45.734-42.741,64.751-67.846
		c15.409-20.342,24.731-43.133,29.154-68.087c0.855-4.829,1.416-9.711,2.113-14.569V475.684
		C1112.375,471.614,1110.964,467.598,1110.193,463.464z M1095.001,596.073c-58.608,58.424-117.083,116.981-175.649,175.447
		c-1.761,1.758-4.132,2.904-6.218,4.335c-13.187,32.126-26.322,64.273-39.571,96.373c-19.506,47.258-39.02,94.513-58.762,141.672
		c-1.802,4.303-4.712,8.494-8.077,11.729c-13.965,13.425-28.667,25.908-46.396,34.369c-15.254,7.28-30.457,8.162-45.378-0.158
		c-8.942-4.987-17.298-11.026-25.917-16.592c-5.218-4.276-10.623-8.346-15.617-12.867c-15.275-13.829-30.435-27.787-45.534-41.808
		c-3.048-2.83-5.638-6.153-8.439-9.25c-8.492-7.774-17.056-15.474-25.461-23.343c-17.347-16.238-34.657-32.518-51.844-48.927
		c-1.939-1.851-2.991-4.631-4.455-6.979c-2.543-1.133-5.617-1.694-7.542-3.489c-14.749-13.753-29.331-27.688-43.804-41.731
		c-1.958-1.898-3.03-4.711-4.511-7.101c-1.443-0.459-3.278-0.501-4.274-1.437c-24.684-23.159-50.248-45.47-70.947-72.519
		c-2.336-3.054-4.334-6.366-6.488-9.559c-6.57-8.649-11.557-17.871-15.175-27.562c1.804-0.001,3.546-1.769,2.216-3.605
		c-3.02-4.172-4.434-9.05-5.179-14.111c0.968-0.258,1.801-1.011,1.854-2.294c0.425-10.28-3.134-20.125-3.667-30.333
		c-0.014-0.261-0.068-0.493-0.138-0.711c-0.051-2.86-0.09-5.719-0.117-8.579c1.077-0.158,2.095-0.961,2.255-2.376
		c0.859-7.603-1.314-14.775-2.237-22.251c-0.31-2.509-0.671-5.011-1.055-7.51c0.15-0.108,0.286-0.238,0.408-0.381
		c2.827,1.257,6.73-0.725,7.217-4.525c0.323-2.521,0.081-4.971,0-7.5c-0.03-0.935-0.289-1.733-0.682-2.412
		c0.759-3.256,1.869-6.416,3.5-9.564c1.18-2.277,0.517-4.447-0.891-5.875c37.74-37.586,75.359-75.294,113.105-112.874
		c2.16-2.151,5.271-3.346,7.941-4.986c1.888-4.037,4.497-6.047,9.516-6.007c33.156,0.267,66.315,0.108,99.474,0.163
		c7.599,0.012,7.755,0.211,4.882,7.35c-15.12,37.563-30.335,75.087-45.483,112.639c-1.071,2.656-1.869,5.422-2.794,8.137
		c2.843-2.583,5.796-5.053,8.51-7.764c36.361-36.311,72.668-72.676,109.069-108.948c2.655-2.646,5.938-4.663,8.931-6.972
		l-0.387,0.281c0.44-0.834,0.881-1.67,1.322-2.504c2.985-0.749,5.97-2.148,8.956-2.151c126.245-0.109,252.489-0.099,378.735-0.08
		c8.455,0.002,8.55,0.096,8.566,8.384c0.051,24.863,0.037,49.726-0.012,74.587c-0.003,2.23-0.438,4.46-0.672,6.691
		C1101.335,586.612,1099.76,591.33,1095.001,596.073z"/>
</g>
<g id="HT">
	<g>
		<path fill-rule="evenodd" clip-rule="evenodd" fill="none" d="M481.827,847.753c-1.443-0.459-3.278-0.501-4.274-1.437
			c-24.684-23.159-50.248-45.47-70.947-72.519c-2.336-3.054-4.334-6.366-6.488-9.559c7.313-17.091,14.855-34.088,21.899-51.289
			c22.643-55.294,45.14-110.648,67.607-166.014c6.76-16.658,13.241-33.429,19.851-50.148c1.888-4.037,4.497-6.047,9.516-6.007
			c33.156,0.267,66.315,0.108,99.474,0.163c7.599,0.012,7.755,0.211,4.882,7.35c-15.12,37.563-30.335,75.087-45.483,112.639
			c-1.071,2.656-1.869,5.422-2.794,8.137c-1.861,4.083-3.891,8.1-5.545,12.266c-2.434,6.132-2.316,6.361,4.302,6.389
			c20.986,0.09,41.975-0.166,62.957,0.167c5.711,0.091,8.47-1.656,10.602-7.094c10.456-26.686,21.454-53.158,32.146-79.752
			c7.444-18.514,14.704-37.103,22.048-55.659l-0.387,0.281c0.44-0.834,0.881-1.67,1.322-2.504c2.985-0.749,5.97-2.148,8.956-2.151
			c126.245-0.109,252.489-0.099,378.735-0.08c8.455,0.002,8.55,0.096,8.566,8.384c0.051,24.863,0.037,49.726-0.012,74.587
			c-0.003,2.23-0.438,4.46-0.672,6.691c-32.252-0.022-64.504-0.053-96.756-0.061c-8.958-0.002-9.018,0.006-12.442,8.373
			c-11.217,27.391-22.448,54.775-33.556,82.209c-14.127,34.889-28.14,69.824-42.2,104.739
			c-13.187,32.126-26.322,64.273-39.571,96.373c-19.506,47.258-39.02,94.513-58.762,141.672c-1.802,4.303-4.712,8.494-8.077,11.729
			c-13.965,13.425-28.667,25.908-46.396,34.369c-15.254,7.28-30.457,8.162-45.378-0.158c-8.942-4.987-17.298-11.026-25.917-16.592
			c31.928-77.662,63.948-155.286,95.758-232.996c30.239-73.874,60.258-147.838,90.373-221.762c0.486-1.193,1.026-2.365,1.46-3.577
			c0.929-2.6,0.619-4.429-2.763-4.357c-2.258,0.048-4.518-0.023-6.776-0.023c-25.814-0.004-51.63,0.012-77.445-0.013
			c-8.195-0.009-8.188-0.055-11.452,8.024c-32.913,81.452-65.743,162.936-98.771,244.339
			c-19.831,48.879-39.972,97.632-59.973,146.44c-8.492-7.774-17.056-15.474-25.461-23.343
			c-17.347-16.238-34.657-32.518-51.844-48.927c-1.939-1.851-2.991-4.631-4.455-6.979c3.643-9.26,7.194-18.558,10.944-27.774
			c16.475-40.495,33.033-80.956,49.49-121.459c2.264-5.572,2.079-5.818-3.619-5.839c-21.935-0.074-43.872,0.088-65.805-0.134
			c-4.237-0.043-6.401,1.341-7.886,5.214c-4.034,10.512-8.413,20.89-12.587,31.349C499.4,803.529,490.621,825.645,481.827,847.753z"
			/>
		<path fill-rule="evenodd" clip-rule="evenodd" fill="#CC4C1F" d="M619.443,979.323c20.001-48.809,40.142-97.562,59.973-146.44
			c33.028-81.403,65.859-162.888,98.771-244.339c3.264-8.08,3.257-8.033,11.452-8.024c25.815,0.025,51.631,0.009,77.445,0.013
			c2.259,0,4.519,0.072,6.776,0.023c3.382-0.072,3.691,1.758,2.763,4.357c-0.434,1.212-0.974,2.384-1.46,3.577
			c-30.115,73.924-60.134,147.888-90.373,221.762c-31.811,77.71-63.83,155.334-95.758,232.996
			c-5.218-4.276-10.623-8.346-15.617-12.867c-15.275-13.829-30.435-27.787-45.534-41.808
			C624.834,985.743,622.244,982.42,619.443,979.323z"/>
		<path fill-rule="evenodd" clip-rule="evenodd" fill="#CC4C1F" d="M509.474,496.788c-6.61,16.72-13.09,33.491-19.851,50.148
			c-22.467,55.365-44.964,110.719-67.607,166.014c-7.043,17.201-14.586,34.198-21.899,51.289
			c-14.679-19.323-21.488-41.493-22.734-65.38c-1.104-21.154-2.058-63.527-2.058-63.527s-0.659-6.665,5.191-12.801
			c37.977-42.488,80.631-80.551,121.016-120.757C503.692,499.623,506.804,498.428,509.474,496.788z"/>
		<path fill-rule="evenodd" clip-rule="evenodd" fill="#CC4C1F" d="M913.134,775.855c14.061-34.915,28.073-69.85,42.2-104.739
			c11.107-27.434,22.339-54.818,33.556-82.209c3.425-8.366,3.484-8.375,12.442-8.373c32.252,0.007,64.504,0.039,96.756,0.061
			c3.247,6.016,1.672,10.734-3.087,15.478c-58.608,58.424-117.083,116.981-175.649,175.447
			C917.591,773.278,915.22,774.425,913.134,775.855z"/>
		<path fill-rule="evenodd" clip-rule="evenodd" fill="#CC4C1F" d="M481.827,847.753c8.794-22.108,17.573-44.224,26.394-66.322
			c4.174-10.459,8.553-20.837,12.587-31.349c1.485-3.873,3.649-5.257,7.886-5.214c21.934,0.222,43.87,0.06,65.805,0.134
			c5.698,0.021,5.882,0.267,3.619,5.839c-16.457,40.503-33.016,80.964-49.49,121.459c-3.75,9.217-7.301,18.515-10.944,27.774
			c-2.543-1.133-5.617-1.694-7.542-3.489c-14.749-13.753-29.331-27.688-43.804-41.731
			C484.38,852.955,483.308,850.143,481.827,847.753z"/>
		<path fill-rule="evenodd" clip-rule="evenodd" fill="#CC4C1F" d="M701.578,495.387c-7.344,18.556-14.604,37.145-22.048,55.659
			c-10.693,26.594-21.691,53.067-32.146,79.752c-2.131,5.438-4.891,7.185-10.602,7.094c-20.981-0.332-41.971-0.077-62.957-0.167
			c-6.618-0.028-6.736-0.257-4.302-6.389c1.654-4.166,3.684-8.183,5.545-12.266c2.843-2.583,5.796-5.053,8.51-7.764
			c36.361-36.311,72.668-72.676,109.069-108.948C695.303,499.713,698.586,497.696,701.578,495.387z"/>
		<path fill-rule="evenodd" clip-rule="evenodd" fill="#C6461C" d="M702.514,493.164c-0.441,0.834-0.882,1.669-1.322,2.504
			C701.632,494.833,702.073,493.998,702.514,493.164z"/>
	</g>
</g>
</svg>
