<svg xmlns="http://www.w3.org/2000/svg" width="1500" height="1500" xml:space="preserve"><path fill-rule="evenodd" clip-rule="evenodd" fill="#F05E23" d="M1110.193 463.464c-4.302-23.044-18.469-39.243-36.43-52.801-14.969-11.3-32.237-14.833-50.585-14.829-150.021.032-300.043.019-450.064.019-40.651.001-81.306-.313-121.95.216-10.43.135-21.349 1.43-31.124 4.831-17.917 6.235-31.688 18.583-42.738 34.108-8.135 11.432-12.642 23.917-13.674 37.814-.074.993-.022 226.383.018 227.743.877 29.569 11.973 55.263 29.39 78.657 19.788 26.578 44.363 48.571 68.233 71.205 39.113 37.085 78.5 73.881 117.818 110.75 30.135 28.26 60.021 56.799 90.688 84.471 10.679 9.636 22.847 17.923 35.254 25.274 21.398 12.679 43.813 12.798 65.156-.104 12.889-7.791 25.541-16.482 36.681-26.562 32.303-29.229 63.806-59.345 95.588-89.15 38.372-35.987 76.811-71.905 115.02-108.066 22.723-21.506 45.734-42.741 64.751-67.846 15.409-20.342 24.731-43.133 29.154-68.087.855-4.829 1.416-9.711 2.113-14.569V475.684c-1.117-4.07-2.528-8.086-3.299-12.22zm-15.192 132.609c-58.608 58.424-117.083 116.981-175.649 175.447-1.761 1.758-4.132 2.904-6.218 4.335-13.187 32.126-26.322 64.273-39.571 96.373-19.506 47.258-39.02 94.513-58.762 141.672-1.802 4.303-4.712 8.494-8.077 11.729-13.965 13.425-28.667 25.908-46.396 34.369-15.254 7.28-30.457 8.162-45.378-.158-8.942-4.987-17.298-11.026-25.917-16.592-5.218-4.276-10.623-8.346-15.617-12.867-15.275-13.829-30.435-27.787-45.534-41.808-3.048-2.83-5.638-6.153-8.439-9.25-8.492-7.774-17.056-15.474-25.461-23.343-17.347-16.238-34.657-32.518-51.844-48.927-1.939-1.851-2.991-4.631-4.455-6.979-2.543-1.133-5.617-1.694-7.542-3.489-14.749-13.753-29.331-27.688-43.804-41.731-1.958-1.898-3.03-4.711-4.511-7.101-1.443-.459-3.278-.501-4.274-1.437-24.684-23.159-50.248-45.47-70.947-72.519-2.336-3.054-4.334-6.366-6.488-9.559a107.405 107.405 0 0 1-15.175-27.562c1.804-.001 3.546-1.769 2.216-3.605-3.02-4.172-4.434-9.05-5.179-14.111.968-.258 1.801-1.011 1.854-2.294.425-10.28-3.134-20.125-3.667-30.333a2.777 2.777 0 0 0-.138-.711c-.051-2.86-.09-5.719-.117-8.579 1.077-.158 2.095-.961 2.255-2.376.859-7.603-1.314-14.775-2.237-22.251-.31-2.509-.671-5.011-1.055-7.51.15-.108.286-.238.408-.381 2.827 1.257 6.73-.725 7.217-4.525.323-2.521.081-4.971 0-7.5a5.068 5.068 0 0 0-.682-2.412c.759-3.256 1.869-6.416 3.5-9.564 1.18-2.277.517-4.447-.891-5.875 37.74-37.586 75.359-75.294 113.105-112.874 2.16-2.151 5.271-3.346 7.941-4.986 1.888-4.037 4.497-6.047 9.516-6.007 33.156.267 66.315.108 99.474.163 7.599.012 7.755.211 4.882 7.35-15.12 37.563-30.335 75.087-45.483 112.639-1.071 2.656-1.869 5.422-2.794 8.137 2.843-2.583 5.796-5.053 8.51-7.764 36.361-36.311 72.668-72.676 109.069-108.948 2.655-2.646 5.938-4.663 8.931-6.972l-.387.281 1.322-2.504c2.985-.749 5.97-2.148 8.956-2.151 126.245-.109 252.489-.099 378.735-.08 8.455.002 8.55.096 8.566 8.384.051 24.863.037 49.726-.012 74.587-.003 2.23-.438 4.46-.672 6.691 3.25 6.017 1.675 10.735-3.084 15.478z"/><g clip-rule="evenodd"><path fill="none" d="M481.827 847.753c-1.443-.459-3.278-.501-4.274-1.437-24.684-23.159-50.248-45.47-70.947-72.519-2.336-3.054-4.334-6.366-6.488-9.559 7.313-17.091 14.855-34.088 21.899-51.289 22.643-55.294 45.14-110.648 67.607-166.014 6.76-16.658 13.241-33.429 19.851-50.148 1.888-4.037 4.497-6.047 9.516-6.007 33.156.267 66.315.108 99.474.163 7.599.012 7.755.211 4.882 7.35-15.12 37.563-30.335 75.087-45.483 112.639-1.071 2.656-1.869 5.422-2.794 8.137-1.861 4.083-3.891 8.1-5.545 12.266-2.434 6.132-2.316 6.361 4.302 6.389 20.986.09 41.975-.166 62.957.167 5.711.091 8.47-1.656 10.602-7.094 10.456-26.686 21.454-53.158 32.146-79.752 7.444-18.514 14.704-37.103 22.048-55.659l-.387.281 1.322-2.504c2.985-.749 5.97-2.148 8.956-2.151 126.245-.109 252.489-.099 378.735-.08 8.455.002 8.55.096 8.566 8.384.051 24.863.037 49.726-.012 74.587-.003 2.23-.438 4.46-.672 6.691-32.252-.022-64.504-.053-96.756-.061-8.958-.002-9.018.006-12.442 8.373-11.217 27.391-22.448 54.775-33.556 82.209-14.127 34.889-28.14 69.824-42.2 104.739-13.187 32.126-26.322 64.273-39.571 96.373-19.506 47.258-39.02 94.513-58.762 141.672-1.802 4.303-4.712 8.494-8.077 11.729-13.965 13.425-28.667 25.908-46.396 34.369-15.254 7.28-30.457 8.162-45.378-.158-8.942-4.987-17.298-11.026-25.917-16.592 31.928-77.662 63.948-155.286 95.758-232.996 30.239-73.874 60.258-147.838 90.373-221.762.486-1.193 1.026-2.365 1.46-3.577.929-2.6.619-4.429-2.763-4.357-2.258.048-4.518-.023-6.776-.023-25.814-.004-51.63.012-77.445-.013-8.195-.009-8.188-.055-11.452 8.024-32.913 81.452-65.743 162.936-98.771 244.339-19.831 48.879-39.972 97.632-59.973 146.44-8.492-7.774-17.056-15.474-25.461-23.343-17.347-16.238-34.657-32.518-51.844-48.927-1.939-1.851-2.991-4.631-4.455-6.979 3.643-9.26 7.194-18.558 10.944-27.774 16.475-40.495 33.033-80.956 49.49-121.459 2.264-5.572 2.079-5.818-3.619-5.839-21.935-.074-43.872.088-65.805-.134-4.237-.043-6.401 1.341-7.886 5.214-4.034 10.512-8.413 20.89-12.587 31.349-8.821 22.099-17.6 44.215-26.394 66.323z"/><path fill-rule="evenodd" fill="#CC4C1F" d="M619.443 979.323c20.001-48.809 40.142-97.562 59.973-146.44 33.028-81.403 65.859-162.888 98.771-244.339 3.264-8.08 3.257-8.033 11.452-8.024 25.815.025 51.631.009 77.445.013 2.259 0 4.519.072 6.776.023 3.382-.072 3.691 1.758 2.763 4.357-.434 1.212-.974 2.384-1.46 3.577-30.115 73.924-60.134 147.888-90.373 221.762-31.811 77.71-63.83 155.334-95.758 232.996-5.218-4.276-10.623-8.346-15.617-12.867-15.275-13.829-30.435-27.787-45.534-41.808-3.047-2.83-5.637-6.153-8.438-9.25zM509.474 496.788c-6.61 16.72-13.09 33.491-19.851 50.148-22.467 55.365-44.964 110.719-67.607 166.014-7.043 17.201-14.586 34.198-21.899 51.289-14.679-19.323-21.488-41.493-22.734-65.38-1.104-21.154-2.058-63.527-2.058-63.527s-.659-6.665 5.191-12.801c37.977-42.488 80.631-80.551 121.016-120.757 2.16-2.151 5.272-3.346 7.942-4.986zM913.134 775.855c14.061-34.915 28.073-69.85 42.2-104.739 11.107-27.434 22.339-54.818 33.556-82.209 3.425-8.366 3.484-8.375 12.442-8.373 32.252.007 64.504.039 96.756.061 3.247 6.016 1.672 10.734-3.087 15.478-58.608 58.424-117.083 116.981-175.649 175.447-1.761 1.758-4.132 2.905-6.218 4.335zM481.827 847.753c8.794-22.108 17.573-44.224 26.394-66.322 4.174-10.459 8.553-20.837 12.587-31.349 1.485-3.873 3.649-5.257 7.886-5.214 21.934.222 43.87.06 65.805.134 5.698.021 5.882.267 3.619 5.839-16.457 40.503-33.016 80.964-49.49 121.459-3.75 9.217-7.301 18.515-10.944 27.774-2.543-1.133-5.617-1.694-7.542-3.489-14.749-13.753-29.331-27.688-43.804-41.731-1.958-1.899-3.03-4.711-4.511-7.101zM701.578 495.387c-7.344 18.556-14.604 37.145-22.048 55.659-10.693 26.594-21.691 53.067-32.146 79.752-2.131 5.438-4.891 7.185-10.602 7.094-20.981-.332-41.971-.077-62.957-.167-6.618-.028-6.736-.257-4.302-6.389 1.654-4.166 3.684-8.183 5.545-12.266 2.843-2.583 5.796-5.053 8.51-7.764 36.361-36.311 72.668-72.676 109.069-108.948 2.656-2.645 5.939-4.662 8.931-6.971z"/><path fill-rule="evenodd" fill="#C6461C" d="M702.514 493.164z"/></g><g fill="#F05E23"><path d="M442.437 1142.363h23.538v32.919h13.759v-32.919h23.651v86.816h-23.651v-32.919h-13.759v32.919h-23.538v-86.816zM510.216 1185.629c0-28.256 14.156-45.597 37.183-45.597 23.026 0 37.125 17.341 37.125 45.597 0 28.428-14.1 45.769-37.125 45.769-23.027-.001-37.183-17.341-37.183-45.769zm50.77.058c0-15.465-4.775-24.106-13.588-24.106s-13.645 8.642-13.645 24.106c0 15.578 4.833 24.163 13.645 24.163s13.588-8.585 13.588-24.163zM675.443 1229.18h-23.878l-1.99-43.607-.114-.113-.113.113-10.632 43.607h-14.953l-11.712-43.607-.113-.113-.114.113-1.535 43.607h-23.765l6.083-86.816h24.618l13.588 51.34.17.057.114-.057 13.588-51.34h24.618l6.14 86.816zM682.732 1142.363h46.223v20.979H706.27v12.224h19.217v19.558H706.27v13.076h23.14v20.979h-46.677v-86.816zM748.007 1163.343H731.52v-20.979h55.944v20.979h-15.976v65.837h-23.481v-65.837zM793.043 1142.363h46.223v20.979h-22.685v12.224h19.217v19.558h-19.217v13.076h23.14v20.979h-46.678v-86.816zM886.347 1213.09h-16.715l-3.07 16.09h-24.504l22.799-86.816h27.347l22.799 86.816H889.36l-3.013-16.09zm-3.696-19.501-4.207-22.4-.228-.512-.683.512-4.264 22.4h9.382zM1006.888 1229.18h-23.879l-1.99-43.607-.113-.113-.114.113-10.632 43.607h-14.952l-11.712-43.607-.114-.113-.113.113-1.535 43.607h-23.765l6.083-86.816h24.618l13.588 51.34.171.057.113-.057 13.588-51.34h24.618l6.14 86.816zM1011.561 1219.742c0-6.312 4.549-11.542 11.655-11.542 7.107 0 11.712 5.23 11.712 11.542 0 6.311-4.604 11.541-11.769 11.541-6.993 0-11.598-5.287-11.598-11.541z"/></g></svg>