<?xml version="1.0" encoding="UTF-8"?><svg id="Layer_2" xmlns="http://www.w3.org/2000/svg" viewBox="0 0 501.66 503.75"><g id="Layer_1-2"><path d="M460.08,141.23L309.16,20.48C292.61,7.22,272.04,0,250.83,0s-41.78,7.22-58.33,20.48L41.58,141.23C15.22,162.22-.09,194.1,0,227.79v165.13C0,422.32,11.68,450.51,32.46,471.29c20.78,20.78,48.98,32.46,78.37,32.46H390.83c29.4,0,57.59-11.68,78.37-32.46s32.46-48.98,32.46-78.37V227.74c0-33.66-15.3-65.49-41.58-86.52h0Zm-139.25,269.2H180.83c-6.25,0-12.03-3.34-15.16-8.75s-3.12-12.09,0-17.5,8.9-8.75,15.16-8.75h140c6.25,0,12.03,3.34,15.16,8.75s3.12,12.09,0,17.5-8.9,8.75-15.16,8.75Z" style="fill:#f05e24;"/></g></svg>