<?xml version="1.0" encoding="UTF-8"?><svg id="Layer_2" xmlns="http://www.w3.org/2000/svg" viewBox="0 0 592.49 91.37"><g id="Layer_1-2"><g id="HOMETEAM"><g><path d="M0,2.33H23.54V35.25h13.76V2.33h23.65V89.15h-23.65V56.23h-13.76v32.92H0V2.33Z" style="fill:#f05e23;"/><path d="M67.78,45.6C67.78,17.34,81.93,0,104.96,0s37.12,17.34,37.12,45.6-14.1,45.77-37.12,45.77c-23.03,0-37.18-17.34-37.18-45.77Zm50.77,.06c0-15.46-4.78-24.11-13.59-24.11s-13.65,8.64-13.65,24.11,4.83,24.16,13.65,24.16,13.59-8.58,13.59-24.16Z" style="fill:#f05e23;"/><path d="M233.01,89.15h-23.88l-1.99-43.61-.11-.11-.11,.11-10.63,43.61h-14.95l-11.71-43.61-.11-.11-.11,.11-1.53,43.61h-23.77L150.17,2.33h24.62l13.59,51.34,.17,.06,.11-.06L202.25,2.33h24.62l6.14,86.82Z" style="fill:#f05e23;"/><path d="M240.29,2.33h46.22V23.31h-22.68v12.22h19.22v19.56h-19.22v13.08h23.14v20.98h-46.68V2.33h0Z" style="fill:#f05e23;"/><path d="M305.57,23.31h-16.49V2.33h55.94V23.31h-15.98V89.15h-23.48V23.31h0Z" style="fill:#f05e23;"/><path d="M350.61,2.33h46.22V23.31h-22.68v12.22h19.22v19.56h-19.22v13.08h23.14v20.98h-46.68V2.33h0Z" style="fill:#f05e23;"/><path d="M443.91,73.06h-16.72l-3.07,16.09h-24.5L422.42,2.33h27.35l22.8,86.82h-25.64l-3.01-16.09Zm-3.7-19.5l-4.21-22.4-.23-.51-.68,.51-4.26,22.4h9.38Z" style="fill:#f05e23;"/><path d="M564.45,89.15h-23.88l-1.99-43.61-.11-.11-.11,.11-10.63,43.61h-14.95l-11.71-43.61-.11-.11-.11,.11-1.53,43.61h-23.77l6.08-86.82h24.62l13.59,51.34,.17,.06,.11-.06,13.59-51.34h24.62l6.14,86.82Z" style="fill:#f05e23;"/><path d="M569.12,79.71c0-6.31,4.55-11.54,11.66-11.54s11.71,5.23,11.71,11.54-4.6,11.54-11.77,11.54-11.6-5.29-11.6-11.54Z" style="fill:#f05e23;"/></g></g></g></svg>