<svg xmlns="http://www.w3.org/2000/svg" viewBox="0 0 749.9 684.7"><g id="Layer_2" data-name="Layer 2"><g id="Layer_1-2" data-name="Layer 1"><g id="Home_Plate" data-name="Home Plate"><path d="M746.6,67.7c-4.3-23-18.47-39.24-36.43-52.8C695.2,3.6,677.94.07,659.59.07q-225,0-450.07,0c-40.65,0-81.3-.31-122,.22C77.14.44,66.22,1.74,56.45,5.14,38.53,11.37,24.76,23.72,13.71,39.25A73.09,73.09,0,0,0,0,77.06c-.08,1,0,226.38,0,227.74.87,29.57,12,55.27,29.39,78.66C49.23,410,73.81,432,97.68,454.67q58.66,55.62,117.82,110.75c30.13,28.26,60,56.79,90.68,84.47,10.68,9.63,22.85,17.92,35.26,25.27,21.4,12.68,43.81,12.8,65.15-.1,12.89-7.79,25.55-16.49,36.69-26.57,32.3-29.22,63.8-59.34,95.58-89.15q57.57-54,115-108.06c22.73-21.51,45.74-42.74,64.75-67.85,15.41-20.34,24.74-43.13,29.16-68.08.85-4.83,1.41-9.72,2.11-14.57V79.92C748.78,75.85,747.37,71.84,746.6,67.7ZM731.41,200.31Q643.49,288,555.76,375.76c-1.76,1.76-4.13,2.9-6.22,4.33q-19.77,48.2-39.57,96.38-29.25,70.88-58.76,141.67a36.06,36.06,0,0,1-8.08,11.73c-14,13.42-28.66,25.91-46.39,34.37-15.26,7.28-30.46,8.16-45.38-.16-8.94-5-17.3-11-25.92-16.59-5.22-4.28-10.62-8.35-15.61-12.87q-22.92-20.75-45.54-41.81c-3.05-2.83-5.64-6.15-8.44-9.25-8.49-7.77-17-15.47-25.46-23.34q-26-24.36-51.84-48.93c-1.94-1.85-3-4.63-4.46-7-2.54-1.13-5.61-1.69-7.54-3.49q-22.12-20.62-43.8-41.73c-2-1.9-3-4.71-4.51-7.1-1.45-.46-3.28-.5-4.28-1.44C89.28,427.4,63.71,405.08,43,378c-2.33-3.06-4.33-6.37-6.48-9.56a107.4,107.4,0,0,1-15.18-27.57c1.81,0,3.55-1.76,2.22-3.6-3-4.17-4.44-9.05-5.18-14.11a2.38,2.38,0,0,0,1.85-2.3c.43-10.28-3.13-20.12-3.66-30.33a3.08,3.08,0,0,0-.14-.71q-.07-4.29-.12-8.58a2.62,2.62,0,0,0,2.26-2.37c.85-7.61-1.32-14.78-2.24-22.26-.31-2.5-.67-5-1.06-7.51a1.84,1.84,0,0,0,.41-.38c2.83,1.26,6.73-.72,7.22-4.52a47,47,0,0,0,0-7.5,5.08,5.08,0,0,0-.68-2.41,40.64,40.64,0,0,1,3.5-9.57,4.88,4.88,0,0,0-.89-5.87Q81.45,162.51,137.94,106c2.16-2.15,5.27-3.34,7.94-5,1.89-4,4.5-6,9.52-6,33.15.27,66.31.11,99.47.16,7.6,0,7.76.21,4.88,7.35q-22.68,56.35-45.48,112.64c-1.07,2.66-1.87,5.42-2.79,8.14,2.84-2.58,5.79-5.05,8.51-7.76q54.54-54.48,109.07-109c2.65-2.65,5.93-4.67,8.93-7l-.39.28,1.32-2.51c3-.75,6-2.15,9-2.15q189.36-.16,378.73-.08c8.46,0,8.55.1,8.57,8.39q.08,37.29,0,74.58a65.91,65.91,0,0,1-.68,6.69C737.74,190.85,736.17,195.57,731.41,200.31Z" style="fill:#f05e23;fill-rule:evenodd"/></g><g id="HT"><path d="M118.24,452c-1.45-.46-3.28-.5-4.28-1.44C89.28,427.4,63.71,405.08,43,378c-2.34-3.06-4.34-6.37-6.49-9.56,7.31-17.09,14.85-34.09,21.9-51.29q34-83,67.6-166c6.76-16.65,13.24-33.43,19.85-50.14,1.89-4,4.5-6,9.52-6,33.16.27,66.32.11,99.47.16,7.6,0,7.76.21,4.89,7.35q-22.68,56.34-45.49,112.64c-1.07,2.66-1.87,5.42-2.79,8.14-1.86,4.08-3.89,8.1-5.55,12.26-2.43,6.14-2.31,6.36,4.31,6.39,21,.09,42-.16,62.95.17,5.71.09,8.47-1.66,10.61-7.09,10.45-26.69,21.45-53.16,32.14-79.76,7.45-18.51,14.71-37.1,22.05-55.66l-.39.29,1.32-2.51c3-.75,6-2.15,9-2.15q189.38-.16,378.74-.08c8.45,0,8.55.1,8.56,8.38q.08,37.3,0,74.59a65.88,65.88,0,0,1-.67,6.69l-96.76-.06c-9,0-9,0-12.44,8.37q-16.83,41.1-33.56,82.21-21.18,52.33-42.2,104.74-19.77,48.2-39.57,96.38-29.25,70.88-58.76,141.67a36.06,36.06,0,0,1-8.08,11.73c-14,13.42-28.66,25.9-46.39,34.37-15.26,7.28-30.46,8.16-45.38-.16-8.94-5-17.3-11-25.92-16.59q47.9-116.5,95.76-233,45.36-110.8,90.37-221.76c.49-1.2,1-2.37,1.46-3.58.93-2.6.62-4.43-2.76-4.36-2.26.05-4.52,0-6.78,0q-38.72,0-77.44,0c-8.2,0-8.19-.06-11.45,8Q365.22,315,315.83,437.12c-19.83,48.88-40,97.63-60,146.44-8.49-7.77-17-15.47-25.46-23.34q-26-24.36-51.84-48.93c-1.94-1.85-3-4.63-4.46-7,3.65-9.26,7.2-18.56,10.95-27.77q24.71-60.75,49.49-121.46c2.26-5.57,2.08-5.82-3.62-5.84-21.94-.07-43.87.09-65.81-.13-4.23-.05-6.4,1.34-7.88,5.21-4,10.51-8.42,20.89-12.59,31.35Q131.4,418.82,118.24,452Z" style="fill:none"/><path d="M255.85,583.56c20-48.81,40.14-97.56,60-146.44Q365.36,315,414.6,192.78c3.26-8.08,3.25-8,11.45-8q38.71,0,77.44,0c2.26,0,4.52.07,6.78,0,3.38-.07,3.69,1.76,2.76,4.36-.43,1.21-1,2.39-1.46,3.58Q466.41,303.61,421.2,414.49q-47.71,116.56-95.76,233c-5.22-4.28-10.62-8.35-15.62-12.87q-22.9-20.75-45.53-41.81C261.24,590,258.65,586.66,255.85,583.56Z" style="fill:#cc4c1f;fill-rule:evenodd"/><path d="M145.88,101c-6.61,16.72-13.09,33.49-19.85,50.14q-33.69,83.06-67.6,166c-7,17.2-14.59,34.2-21.9,51.29C21.85,349.15,15,327,13.79,303.1c-1.1-21.16-2.06-63.53-2.06-63.53s-.65-6.66,5.2-12.8c38-42.49,80.63-80.55,121-120.76C140.1,103.86,143.21,102.67,145.88,101Z" style="fill:#cc4c1f;fill-rule:evenodd"/><path d="M549.54,380.09q21.09-52.36,42.2-104.74,16.66-41.15,33.56-82.2c3.42-8.37,3.48-8.38,12.44-8.38l96.76.06c3.24,6,1.67,10.74-3.09,15.48Q643.49,288,555.76,375.76C554,377.52,551.63,378.66,549.54,380.09Z" style="fill:#cc4c1f;fill-rule:evenodd"/><path d="M118.24,452q13.19-33.17,26.39-66.32c4.17-10.46,8.55-20.84,12.59-31.35,1.48-3.87,3.65-5.26,7.88-5.21,21.94.22,43.87.06,65.81.13,5.7,0,5.88.27,3.62,5.84Q209.84,415.83,185,476.54c-3.75,9.22-7.3,18.51-10.95,27.77-2.54-1.13-5.61-1.69-7.54-3.49q-22.12-20.62-43.8-41.73C120.79,457.19,119.72,454.38,118.24,452Z" style="fill:#cc4c1f;fill-rule:evenodd"/><path d="M338,99.63c-7.35,18.55-14.61,37.14-22.05,55.65-10.69,26.6-21.69,53.07-32.15,79.76-2.13,5.43-4.89,7.18-10.6,7.09-21-.33-42-.08-63-.17-6.61,0-6.73-.25-4.3-6.39,1.66-4.16,3.69-8.18,5.55-12.26,2.84-2.58,5.79-5.05,8.51-7.77q54.54-54.46,109.07-108.94C331.71,104,335,101.93,338,99.63Z" style="fill:#cc4c1f;fill-rule:evenodd"/><path d="M338.92,97.4l-1.32,2.51Z" style="fill:#c6461c;fill-rule:evenodd"/></g></g></g></svg>