<?xml version="1.0" encoding="UTF-8"?><svg id="Layer_2" xmlns="http://www.w3.org/2000/svg" viewBox="0 0 749.9 835.64"><g id="Layer_1-2"><path d="M746.6,67.7c-4.3-23.04-18.47-39.24-36.43-52.8C695.2,3.6,677.94,.07,659.59,.07c-150.02,.03-300.04,.02-450.06,.02-40.65,0-81.31-.31-121.95,.22-10.43,.14-21.35,1.43-31.12,4.83C38.53,11.37,24.76,23.72,13.71,39.25,5.58,50.68,1.07,63.16,.04,77.06c-.07,.99-.02,226.38,.02,227.74,.88,29.57,11.97,55.26,29.39,78.66,19.79,26.58,44.36,48.57,68.23,71.21,39.11,37.09,78.5,73.88,117.82,110.75,30.14,28.26,60.02,56.8,90.69,84.47,10.68,9.64,22.85,17.92,35.25,25.27,21.4,12.68,43.81,12.8,65.16-.1,12.89-7.79,25.54-16.48,36.68-26.56,32.3-29.23,63.81-59.34,95.59-89.15,38.37-35.99,76.81-71.91,115.02-108.07,22.72-21.51,45.73-42.74,64.75-67.85,15.41-20.34,24.73-43.13,29.15-68.09,.85-4.83,1.42-9.71,2.11-14.57V79.92c-1.12-4.07-2.53-8.09-3.3-12.22h0Zm-15.19,132.61c-58.61,58.42-117.08,116.98-175.65,175.45-1.76,1.76-4.13,2.9-6.22,4.34-13.19,32.13-26.32,64.27-39.57,96.37-19.51,47.26-39.02,94.51-58.76,141.67-1.8,4.3-4.71,8.49-8.08,11.73-13.97,13.43-28.67,25.91-46.4,34.37-15.25,7.28-30.46,8.16-45.38-.16-8.94-4.99-17.3-11.03-25.92-16.59-5.22-4.28-10.62-8.35-15.62-12.87-15.28-13.83-30.43-27.79-45.53-41.81-3.05-2.83-5.64-6.15-8.44-9.25-8.49-7.77-17.06-15.47-25.46-23.34-17.35-16.24-34.66-32.52-51.84-48.93-1.94-1.85-2.99-4.63-4.46-6.98-2.54-1.13-5.62-1.69-7.54-3.49-14.75-13.75-29.33-27.69-43.8-41.73-1.96-1.9-3.03-4.71-4.51-7.1-1.44-.46-3.28-.5-4.27-1.44-24.68-23.16-50.25-45.47-70.95-72.52-2.34-3.05-4.33-6.37-6.49-9.56-6.38-8.39-11.5-17.68-15.17-27.56,1.8,0,3.55-1.77,2.22-3.6-3.02-4.17-4.43-9.05-5.18-14.11,.97-.26,1.8-1.01,1.85-2.29,.42-10.28-3.13-20.12-3.67-30.33-.01-.24-.06-.48-.14-.71-.05-2.86-.09-5.72-.12-8.58,1.08-.16,2.1-.96,2.26-2.38,.86-7.6-1.31-14.78-2.24-22.25-.31-2.51-.67-5.01-1.05-7.51,.15-.11,.29-.24,.41-.38,2.83,1.26,6.73-.72,7.22-4.53,.32-2.52,.08-4.97,0-7.5-.02-.85-.26-1.68-.68-2.41,.76-3.26,1.87-6.42,3.5-9.56,1.18-2.28,.52-4.45-.89-5.88,37.74-37.59,75.36-75.29,113.11-112.87,2.16-2.15,5.27-3.35,7.94-4.99,1.89-4.04,4.5-6.05,9.52-6.01,33.16,.27,66.32,.11,99.47,.16,7.6,.01,7.76,.21,4.88,7.35-15.12,37.56-30.34,75.09-45.48,112.64-1.07,2.66-1.87,5.42-2.79,8.14,2.84-2.58,5.8-5.05,8.51-7.76,36.36-36.31,72.67-72.68,109.07-108.95,2.66-2.65,5.94-4.66,8.93-6.97l-.39,.28,1.32-2.5c2.98-.75,5.97-2.15,8.96-2.15,126.24-.11,252.49-.1,378.73-.08,8.45,0,8.55,.1,8.57,8.38,.05,24.86,.04,49.73-.01,74.59,0,2.23-.44,4.46-.67,6.69,3.25,6.02,1.68,10.73-3.08,15.48h0Z" style="fill:#f05e23; fill-rule:evenodd;"/><g><path d="M118.24,451.99c-1.44-.46-3.28-.5-4.27-1.44-24.68-23.16-50.25-45.47-70.95-72.52-2.34-3.05-4.33-6.37-6.49-9.56,7.31-17.09,14.86-34.09,21.9-51.29,22.64-55.29,45.14-110.65,67.61-166.01,6.76-16.66,13.24-33.43,19.85-50.15,1.89-4.04,4.5-6.05,9.52-6.01,33.16,.27,66.32,.11,99.47,.16,7.6,.01,7.76,.21,4.88,7.35-15.12,37.56-30.34,75.09-45.48,112.64-1.07,2.66-1.87,5.42-2.79,8.14-1.86,4.08-3.89,8.1-5.54,12.27-2.43,6.13-2.32,6.36,4.3,6.39,20.99,.09,41.97-.17,62.96,.17,5.71,.09,8.47-1.66,10.6-7.09,10.46-26.69,21.45-53.16,32.15-79.75,7.44-18.51,14.7-37.1,22.05-55.66l-.39,.28,1.32-2.5c2.98-.75,5.97-2.15,8.96-2.15,126.24-.11,252.49-.1,378.74-.08,8.45,0,8.55,.1,8.57,8.38,.05,24.86,.04,49.73-.01,74.59,0,2.23-.44,4.46-.67,6.69-32.25-.02-64.5-.05-96.76-.06-8.96,0-9.02,0-12.44,8.37-11.22,27.39-22.45,54.78-33.56,82.21-14.13,34.89-28.14,69.82-42.2,104.74-13.19,32.13-26.32,64.27-39.57,96.37-19.51,47.26-39.02,94.51-58.76,141.67-1.8,4.3-4.71,8.49-8.08,11.73-13.97,13.43-28.67,25.91-46.4,34.37-15.25,7.28-30.46,8.16-45.38-.16-8.94-4.99-17.3-11.03-25.92-16.59,31.93-77.66,63.95-155.29,95.76-233,30.24-73.87,60.26-147.84,90.37-221.76,.49-1.19,1.03-2.36,1.46-3.58,.93-2.6,.62-4.43-2.76-4.36-2.26,.05-4.52-.02-6.78-.02-25.81,0-51.63,.01-77.45-.01-8.2,0-8.19-.05-11.45,8.02-32.91,81.45-65.74,162.94-98.77,244.34-19.83,48.88-39.97,97.63-59.97,146.44-8.49-7.77-17.06-15.47-25.46-23.34-17.35-16.24-34.66-32.52-51.84-48.93-1.94-1.85-2.99-4.63-4.46-6.98,3.64-9.26,7.19-18.56,10.94-27.77,16.47-40.49,33.03-80.96,49.49-121.46,2.26-5.57,2.08-5.82-3.62-5.84-21.93-.07-43.87,.09-65.8-.13-4.24-.04-6.4,1.34-7.89,5.21-4.03,10.51-8.41,20.89-12.59,31.35-8.82,22.1-17.6,44.22-26.39,66.32h0Z" style="fill:none;"/><path d="M255.85,583.56c20-48.81,40.14-97.56,59.97-146.44,33.03-81.4,65.86-162.89,98.77-244.34,3.26-8.08,3.26-8.03,11.45-8.02,25.82,.03,51.63,0,77.45,.01,2.26,0,4.52,.07,6.78,.02,3.38-.07,3.69,1.76,2.76,4.36-.43,1.21-.97,2.38-1.46,3.58-30.11,73.92-60.13,147.89-90.37,221.76-31.81,77.71-63.83,155.33-95.76,233-5.22-4.28-10.62-8.35-15.62-12.87-15.28-13.83-30.43-27.79-45.53-41.81-3.05-2.83-5.64-6.15-8.44-9.25h0ZM145.88,101.03c-6.61,16.72-13.09,33.49-19.85,50.15-22.47,55.36-44.96,110.72-67.61,166.01-7.04,17.2-14.59,34.2-21.9,51.29-14.68-19.32-21.49-41.49-22.73-65.38-1.1-21.15-2.06-63.53-2.06-63.53,0,0-.66-6.66,5.19-12.8,37.98-42.49,80.63-80.55,121.02-120.76,2.16-2.15,5.27-3.35,7.94-4.99h0Zm403.66,279.07c14.06-34.91,28.07-69.85,42.2-104.74,11.11-27.43,22.34-54.82,33.56-82.21,3.42-8.37,3.48-8.38,12.44-8.37,32.25,0,64.5,.04,96.76,.06,3.25,6.02,1.67,10.73-3.09,15.48-58.61,58.42-117.08,116.98-175.65,175.45-1.76,1.76-4.13,2.91-6.22,4.34h0ZM118.24,451.99c8.79-22.11,17.57-44.22,26.39-66.32,4.17-10.46,8.55-20.84,12.59-31.35,1.48-3.87,3.65-5.26,7.89-5.21,21.93,.22,43.87,.06,65.8,.13,5.7,.02,5.88,.27,3.62,5.84-16.46,40.5-33.02,80.96-49.49,121.46-3.75,9.22-7.3,18.52-10.94,27.77-2.54-1.13-5.62-1.69-7.54-3.49-14.75-13.75-29.33-27.69-43.8-41.73-1.96-1.9-3.03-4.71-4.51-7.1h0ZM337.99,99.63c-7.34,18.56-14.6,37.14-22.05,55.66-10.69,26.59-21.69,53.07-32.15,79.75-2.13,5.44-4.89,7.18-10.6,7.09-20.98-.33-41.97-.08-62.96-.17-6.62-.03-6.74-.26-4.3-6.39,1.65-4.17,3.68-8.18,5.54-12.27,2.84-2.58,5.8-5.05,8.51-7.76,36.36-36.31,72.67-72.68,109.07-108.95,2.66-2.64,5.94-4.66,8.93-6.97h0Z" style="fill:#cc4c1f; fill-rule:evenodd;"/></g><path d="M78.85,746.6h23.54v32.92h13.76v-32.92h23.65v86.82h-23.65v-32.92h-13.76v32.92h-23.54v-86.82Zm67.78,43.27c0-28.26,14.16-45.6,37.18-45.6s37.12,17.34,37.12,45.6-14.1,45.77-37.12,45.77c-23.03,0-37.18-17.34-37.18-45.77Zm50.77,.06c0-15.46-4.78-24.11-13.59-24.11s-13.65,8.64-13.65,24.11,4.83,24.16,13.65,24.16,13.59-8.58,13.59-24.16Zm114.46,43.49h-23.88l-1.99-43.61-.11-.11-.11,.11-10.63,43.61h-14.95l-11.71-43.61-.11-.11-.11,.11-1.53,43.61h-23.77l6.08-86.82h24.62l13.59,51.34,.17,.06,.11-.06,13.59-51.34h24.62l6.14,86.82h0Zm7.29-86.82h46.22v20.98h-22.68v12.22h19.22v19.56h-19.22v13.08h23.14v20.98h-46.68v-86.82h0Zm65.28,20.98h-16.49v-20.98h55.94v20.98h-15.98v65.84h-23.48v-65.84h0Zm45.04-20.98h46.22v20.98h-22.68v12.22h19.22v19.56h-19.22v13.08h23.14v20.98h-46.68v-86.82h0Zm93.3,70.73h-16.72l-3.07,16.09h-24.5l22.8-86.82h27.35l22.8,86.82h-25.64l-3.01-16.09Zm-3.7-19.5l-4.21-22.4-.23-.51-.68,.51-4.26,22.4h9.38Zm124.24,35.59h-23.88l-1.99-43.61-.11-.11-.11,.11-10.63,43.61h-14.95l-11.71-43.61-.11-.11-.11,.11-1.53,43.61h-23.77l6.08-86.82h24.62l13.59,51.34,.17,.06,.11-.06,13.59-51.34h24.62l6.14,86.82Zm4.67-9.44c0-6.31,4.55-11.54,11.66-11.54s11.71,5.23,11.71,11.54-4.6,11.54-11.77,11.54-11.6-5.29-11.6-11.54Z" style="fill:#f05e23;"/></g></svg>