<?xml version="1.0" encoding="UTF-8"?><svg id="Layer_2" xmlns="http://www.w3.org/2000/svg" viewBox="0 0 418.91 559.99"><g id="Layer_1-2"><path d="M209.45,0C93.95,0,0,93.95,0,209.45c0,37.62,17.72,85.09,54.03,145.14,30.19,49.88,67.59,99.42,100.52,143.06,15.2,20.13,29.53,39.16,40.58,54.91,3.28,4.7,8.64,7.44,14.33,7.44s11.05-2.73,14.33-7.44c11.05-15.75,25.38-34.78,40.58-54.91,32.92-43.64,70.22-93.19,100.52-143.06,36.31-60.05,54.03-107.52,54.03-145.14C418.91,93.95,324.96,0,209.46,0h-.01Zm0,306.25c-53.38,0-96.8-43.42-96.8-96.8s43.42-96.8,96.8-96.8,96.8,43.42,96.8,96.8-43.42,96.8-96.8,96.8Z" style="fill:#f05f24;"/></g></svg>